<?xml version="1.0" encoding="UTF-8"?><svg id="a" xmlns="http://www.w3.org/2000/svg" viewBox="0 0 512 512"><defs><style>.k{fill:#fcdc00;}.k,.l{fill-rule:evenodd;}.l{fill:#1d1d1b;}</style></defs><g id="b"><g id="c" transform="translate(-867.000000, -2657.000000)"><g id="d" transform="translate(50.000000, 2594.000000)"><g id="e" transform="translate(643.000000, 63.000000)"><g id="f" transform="translate(174.000000, 0.000000)"><g id="g"><path id="h" class="k" d="M512,448c0,35.3-28.7,64-64,64H64c-35.3,0-64-28.7-64-64V64C0,28.7,28.7,0,64,0H448c35.3,0,64,28.7,64,64V448Z"/></g><path id="i" class="l" d="M143.3,381c-20.2,0-41.5-4.2-57.1-8.7l2.8-39.3c12.9,5.2,29.9,11.5,49.8,11.5,26.1,0,48.8-14.3,48.8-42.1,0-31.4-26.5-45.3-57.8-45.3-11.8,0-27.2,1-37.3,3.5l4.9-125.4H231.4v37.6h-92.3l-2.8,49.5c3.8-.3,10.5-1,16-1,47.7,0,85,28.2,85,79.1,0,42.7-31.3,80.6-94,80.6"/><path id="j" class="l" d="M263.2,377.2v-37.3c31.6-28.9,106.2-91.9,106.2-136.8,0-22.3-17.8-35.2-40.4-35.2-19.9,0-38,7.7-52.9,17.4l-6.6-37.6c20.5-10.1,46.9-16.7,70.6-16.7,46.7,0,79.1,25.1,79.1,69.6,0,51.6-59.2,103.8-95.4,137.9h102v38.7h-162.6Z"/></g></g></g></g></g></svg>