<?xml version="1.0" encoding="utf-8"?>
<!-- Generator: Adobe Illustrator 19.2.1, SVG Export Plug-In . SVG Version: 6.00 Build 0)  -->
<svg version="1.1" id="Calque_1" xmlns="http://www.w3.org/2000/svg" xmlns:xlink="http://www.w3.org/1999/xlink" x="0px" y="0px"
	 viewBox="0 0 16 16" style="enable-background:new 0 0 16 16;" xml:space="preserve">
<style type="text/css">
	.st0{fill:#009DD8;}
	.st1{fill:#FFFFFF;}
</style>
<symbol  id="_x32_06b" viewBox="-19.8 -19.8 39.7 39.7">
	<path class="st0" d="M19.8-14.9c0-2.7-2.2-5-5-5h-29.8c-2.7,0-5,2.2-5,5v29.8c0,2.7,2.2,5,5,5h29.8c2.7,0,5-2.2,5-5V-14.9z"/>
	<g>
		<path class="st1" d="M-11.3-8.4L-16,0.3h0c0-0.2,0-2.9,0-4.6v-4h-2.2V3.5h2.7l4.7-8.6h0c0,0.2-0.1,3.1-0.1,4.6v4h2.2V-8.4H-11.3z"
			/>
		<path class="st1" d="M-0.8-8.6c-4.8,0-5.9,4.8-5.9,8.6c0,4.1,1.5,8.7,6,8.7c4.7,0,6-4.8,6-8.6C5.2-4.1,3.8-8.6-0.8-8.6z M-0.8,6.2
			C-2.9,6.2-3.3,3-3.3,0c0-3,0.4-6.2,2.5-6.2c2.2,0,2.5,3.3,2.5,6.2C1.7,2.9,1.4,6.2-0.8,6.2z"/>
		<path class="st1" d="M12.5-8.6C8-8.6,6.6-4.8,6.6-0.9c0,4.6,1.9,9.5,7.3,9.5c1.1,0,2.3-0.2,3.4-0.5L17,5.5
			c-0.9,0.3-1.9,0.6-2.9,0.6c-2.8,0-4-2.5-4.2-4.9l0,0c0.9,0.8,2,1.3,3.4,1.3c3,0,4.9-2.2,4.9-5.2C18.2-6.1,16-8.6,12.5-8.6z
			 M12.4,0.1c-1.2,0-2-0.5-2.4-1.2C9.9-1.3,9.8-2,9.8-2.3c0-1.5,0.6-3.9,2.7-3.9c1.7,0,2.3,1.7,2.3,3.2C14.8-1.6,14.2,0.1,12.4,0.1z
			"/>
	</g>
</symbol>
<use xlink:href="#_x32_06b"  width="39.7" height="39.7" x="-19.8" y="-19.8" transform="matrix(0.4032 0 0 -0.4032 8.0002 8)" style="overflow:visible;"/>
</svg>
