<?xml version="1.0" encoding="UTF-8" standalone="no"?>
<!-- Generator: Adobe Illustrator 19.2.1, SVG Export Plug-In . SVG Version: 6.00 Build 0)  -->

<svg
   xmlns:dc="http://purl.org/dc/elements/1.1/"
   xmlns:cc="http://creativecommons.org/ns#"
   xmlns:rdf="http://www.w3.org/1999/02/22-rdf-syntax-ns#"
   xmlns:svg="http://www.w3.org/2000/svg"
   xmlns="http://www.w3.org/2000/svg"
   xmlns:xlink="http://www.w3.org/1999/xlink"
   xmlns:sodipodi="http://sodipodi.sourceforge.net/DTD/sodipodi-0.dtd"
   xmlns:inkscape="http://www.inkscape.org/namespaces/inkscape"
   version="1.1"
   id="Calque_1"
   x="0px"
   y="0px"
   viewBox="0 0 16 16"
   style="enable-background:new 0 0 16 16;"
   xml:space="preserve"
   inkscape:version="0.48.4 r9939"
   width="100%"
   height="100%"
   sodipodi:docname="STIB-MIVB_Line_81.svg"><metadata
   id="metadata23"><rdf:RDF><cc:Work
       rdf:about=""><dc:format>image/svg+xml</dc:format><dc:type
         rdf:resource="http://purl.org/dc/dcmitype/StillImage" /></cc:Work></rdf:RDF></metadata><defs
   id="defs21" /><sodipodi:namedview
   pagecolor="#ffffff"
   bordercolor="#666666"
   borderopacity="1"
   objecttolerance="10"
   gridtolerance="10"
   guidetolerance="10"
   inkscape:pageopacity="0"
   inkscape:pageshadow="2"
   inkscape:window-width="1280"
   inkscape:window-height="737"
   id="namedview19"
   showgrid="false"
   inkscape:zoom="14.75"
   inkscape:cx="25.081283"
   inkscape:cy="9.8996995"
   inkscape:window-x="-8"
   inkscape:window-y="-8"
   inkscape:window-maximized="1"
   inkscape:current-layer="text3000" />
<style
   type="text/css"
   id="style3">
	.st0{clip-path:url(#SVGID_2_);fill:#449345;}
	.st1{clip-path:url(#SVGID_2_);fill:#FFFFFF;}
</style>
<g
   id="g5">
	<defs
   id="defs7">
		<rect
   id="SVGID_1_"
   width="16"
   height="16" />
	</defs>
	<clipPath
   id="SVGID_2_">
		<use
   xlink:href="#SVGID_1_"
   style="overflow:visible;"
   id="use11" />
	</clipPath>
	<path
   class="st0"
   d="M16,14c0,1.1-0.9,2-2,2H2c-1.1,0-2-0.9-2-2V2c0-1.1,0.9-2,2-2h12c1.1,0,2,0.9,2,2V14z"
   id="path13"
   clip-path="url(#SVGID_2_)"
   style="fill:#f7afc7;fill-opacity:1" />
	<g
   transform="scale(0.99532059,1.0047014)"
   style="font-size:11.3072834px;font-style:normal;font-variant:normal;font-weight:normal;font-stretch:normal;line-height:105.99999428%;letter-spacing:0px;word-spacing:0px;fill:#f9f9f9;fill-opacity:1;stroke:none;font-family:Brusseline;-inkscape-font-specification:Brusseline"
   id="text3000"><g
     transform="scale(1.0047014,0.9953206)"
     style="font-size:11.28988361px;text-align:center;text-anchor:middle;font-family:Brusseline;-inkscape-font-specification:Brusseline"
     id="text2991"><path
       d="m 7.5163724,9.7103745 c -5.5e-6,0.3686595 -0.07523,0.6978675 -0.2256736,0.9876235 -0.1504543,0.289759 -0.3593027,0.536277 -0.6265459,0.739555 -0.2672525,0.203279 -0.5852625,0.357575 -0.954031,0.462889 -0.3687759,0.105315 -0.7714852,0.157972 -1.2081291,0.157972 -0.3686599,0 -0.7355371,-0.0282 -1.1006328,-0.08459 C 3.0362615,11.91744 2.7107291,11.84032 2.4247617,11.742471 L 2.548796,10.489379 c 0.2561072,0.105201 0.5327725,0.19547 0.8299967,0.270809 0.2972214,0.07534 0.6076515,0.11301 0.9312913,0.113009 0.1956962,1e-6 0.3876621,-0.02636 0.5758985,-0.07907 C 5.074213,10.741411 5.2435542,10.664234 5.3940066,10.562594 5.5444521,10.460956 5.6648687,10.33675 5.7552567,10.189974 5.8456371,10.043202 5.8908292,9.8757557 5.8908331,9.6876349 5.8908292,9.4469188 5.8400096,9.2437553 5.7383742,9.0781438 5.6367313,8.9125379 5.4974799,8.777019 5.3206196,8.6715867 5.1437526,8.5661608 4.9424267,8.488984 4.7166411,8.4400559 4.4908501,8.3911347 4.2536921,8.3666724 4.0051662,8.3666689 l -0.6773654,0 0,-1.1287128 0.6663401,0 c 0.2482962,4.7e-6 0.479712,-0.02262 0.694248,-0.067874 C 4.9029195,7.124837 5.0892005,7.0570776 5.2472326,6.9668032 5.4052581,6.8765388 5.5294646,6.7617497 5.6198525,6.6224356 5.7102331,6.4831321 5.7554252,6.3194184 5.7554289,6.131294 5.7554252,5.9583409 5.7215454,5.8078345 5.6537897,5.6797744 5.5860266,5.5517268 5.4938048,5.4481927 5.3771241,5.3691717 5.2604367,5.2901638 5.1249178,5.2318792 4.970567,5.1943177 4.8162103,5.1567696 4.6487641,5.1379922 4.4682279,5.1379854 4.1746777,5.1379922 3.8849199,5.1737095 3.5989537,5.2451373 3.3129842,5.3165785 3.0457364,5.4162653 2.7972093,5.544198 L 2.63941,4.3589807 C 2.9703971,4.2310492 3.3165445,4.131305 3.6778533,4.0597478 4.0391588,3.9882063 4.4117209,3.9524316 4.7955408,3.9524236 c 0.3087046,8e-6 0.6154597,0.035783 0.9202661,0.1073242 C 6.0206058,4.131305 6.2934237,4.2441992 6.5342614,4.3984305 6.77509,4.5526769 6.9726834,4.7540029 7.1270423,5.002409 7.2813909,5.2508289 7.3585677,5.5518991 7.3585731,5.9056203 7.3585677,6.3948725 7.2117939,6.7862695 6.9182511,7.0798123 6.6246985,7.3733649 6.2483464,7.5953632 5.7891939,7.745808 l 0,0.01137 c 0.2558742,0.037674 0.4891849,0.1129557 0.6999328,0.2258459 0.2107388,0.1128981 0.39323,0.255882 0.5474739,0.4289522 0.1542338,0.1730772 0.2727554,0.3687757 0.3555652,0.587096 0.082799,0.2183261 0.1242011,0.4554268 0.1242066,0.7113026 z"
       style="font-weight:bold;fill:#1a1a1a"
       id="path3028" /><path
       d="m 13.668477,9.7103745 c -6e-6,0.3686595 -0.07523,0.6978675 -0.225674,0.9876235 -0.150454,0.289759 -0.359303,0.536277 -0.626546,0.739555 -0.267252,0.203279 -0.585262,0.357575 -0.954031,0.462889 -0.368776,0.105315 -0.771485,0.157972 -1.208129,0.157972 -0.36866,0 -0.7355369,-0.0282 -1.1006326,-0.08459 C 9.1883659,11.91744 8.8628335,11.84032 8.5768661,11.742471 l 0.1240343,-1.253092 c 0.2561072,0.105201 0.5327725,0.19547 0.8299967,0.270809 0.2972214,0.07534 0.6076519,0.11301 0.9312909,0.113009 0.195697,1e-6 0.387663,-0.02636 0.575899,-0.07907 0.18823,-0.05271 0.357572,-0.129891 0.508024,-0.231531 0.150445,-0.101638 0.270862,-0.225844 0.36125,-0.37262 0.09038,-0.146772 0.135573,-0.3142183 0.135577,-0.5023391 -4e-6,-0.2407161 -0.05082,-0.4438796 -0.152459,-0.6094911 C 11.788836,8.9125379 11.649584,8.777019 11.472724,8.6715867 11.295857,8.5661608 11.094531,8.488984 10.868746,8.4400559 10.642955,8.3911347 10.405796,8.3666724 10.157271,8.3666689 l -0.6773659,0 0,-1.1287128 0.6663399,0 c 0.248296,4.7e-6 0.479712,-0.02262 0.694248,-0.067874 0.214531,-0.045245 0.400812,-0.1130042 0.558844,-0.2032786 0.158026,-0.090264 0.282232,-0.2050535 0.37262,-0.3443676 C 11.862337,6.4831321 11.90753,6.3194184 11.907533,6.131294 11.90753,5.9583409 11.87365,5.8078345 11.805894,5.6797744 11.738131,5.5517268 11.645909,5.4481927 11.529229,5.3691717 11.412541,5.2901638 11.277022,5.2318792 11.122671,5.1943177 10.968315,5.1567696 10.800868,5.1379922 10.620332,5.1379854 10.326782,5.1379922 10.037024,5.1737095 9.7510581,5.2451373 9.4650886,5.3165785 9.1978408,5.4162653 8.9493137,5.544198 L 8.7915144,4.3589807 C 9.1225014,4.2310492 9.4686488,4.131305 9.8299577,4.0597478 10.191263,3.9882063 10.563825,3.9524316 10.947645,3.9524236 c 0.308705,8e-6 0.61546,0.035783 0.920266,0.1073242 0.304799,0.071557 0.577617,0.1844514 0.818455,0.3386827 0.240828,0.1542464 0.438422,0.3555724 0.592781,0.6039785 0.154348,0.2484199 0.231525,0.5494901 0.23153,0.9032113 -5e-6,0.4892522 -0.146779,0.8806492 -0.440321,1.174192 -0.293553,0.2935526 -0.669905,0.5155509 -1.129058,0.6659957 l 0,0.01137 c 0.255874,0.037674 0.489185,0.1129557 0.699933,0.2258459 0.210739,0.1128981 0.39323,0.255882 0.547474,0.4289522 0.154234,0.1730772 0.272755,0.3687757 0.355565,0.587096 0.0828,0.2183261 0.124201,0.4554268 0.124207,0.7113026 z"
       style="font-weight:bold;fill:#1a1a1a"
       id="path3030" /></g></g>
	
</g>
</svg>