<?xml version="1.0" encoding="utf-8"?>
<!-- Generator: Adobe Illustrator 19.2.1, SVG Export Plug-In . SVG Version: 6.00 Build 0)  -->
<svg version="1.1" id="Calque_1" xmlns="http://www.w3.org/2000/svg" xmlns:xlink="http://www.w3.org/1999/xlink" x="0px" y="0px"
	 viewBox="0 0 16 16" style="enable-background:new 0 0 16 16;" xml:space="preserve">
<style type="text/css">
	.st0{clip-path:url(#SVGID_2_);fill:#005691;}
	.st1{clip-path:url(#SVGID_2_);fill:#FFFFFF;}
</style>
<g>
	<defs>
		<rect id="SVGID_1_" width="16" height="16"/>
	</defs>
	<clipPath id="SVGID_2_">
		<use xlink:href="#SVGID_1_"  style="overflow:visible;"/>
	</clipPath>
	<path class="st0" d="M16,14c0,1.1-0.9,2-2,2H2c-1.1,0-2-0.9-2-2V2c0-1.1,0.9-2,2-2h12c1.1,0,2,0.9,2,2V14z"/>
	<path class="st1" d="M4.6,11.9V5.5C4.1,5.8,3.5,6.1,3,6.5l-0.6-1C3.2,4.9,3.9,4.5,4.9,4h1.3v7.8H4.6z"/>
	<path class="st1" d="M10.6,12c-0.7,0-1.3-0.1-1.9-0.3l0.1-1.3c0.4,0.2,1,0.4,1.6,0.4c0.8,0,1.6-0.5,1.6-1.4c0-1-0.9-1.5-1.9-1.5
		C9.8,8,9.3,8,9,8.1L9.1,4h4.3v1.2h-3l-0.1,1.6c0.1,0,0.3,0,0.5,0c1.5,0,2.8,0.9,2.8,2.6C13.7,10.8,12.6,12,10.6,12"/>
</g>
</svg>
