<?xml version="1.0" encoding="utf-8"?>
<!-- Generator: Adobe Illustrator 19.2.1, SVG Export Plug-In . SVG Version: 6.00 Build 0)  -->
<svg version="1.1" id="Calque_1" xmlns="http://www.w3.org/2000/svg" xmlns:xlink="http://www.w3.org/1999/xlink" x="0px" y="0px"
	 viewBox="0 0 16 16" style="enable-background:new 0 0 16 16;" xml:space="preserve">
<style type="text/css">
	.st0{clip-path:url(#SVGID_2_);fill:#FFEA41;}
	.st1{clip-path:url(#SVGID_2_);}
</style>
<g>
	<defs>
		<rect id="SVGID_1_" width="16" height="16"/>
	</defs>
	<clipPath id="SVGID_2_">
		<use xlink:href="#SVGID_1_"  style="overflow:visible;"/>
	</clipPath>
	<path class="st0" d="M16,14c0,1.1-0.9,2-2,2H2c-1.1,0-2-0.9-2-2V2c0-1.1,0.9-2,2-2h12c1.1,0,2,0.9,2,2V14z"/>
	<path class="st1" d="M4.9,12.1c-1.6,0-2.8-0.9-2.8-2.2c0-0.9,0.6-1.6,1.5-2v0C2.8,7.4,2.3,6.8,2.3,6c0-1.2,1-2.1,2.5-2.1
		c1.4,0,2.5,0.7,2.5,1.9c0,0.7-0.4,1.4-1.3,1.8v0C7,8.1,7.6,8.8,7.6,9.7C7.6,11.1,6.6,12.1,4.9,12.1 M4.6,8.4
		C4.1,8.7,3.7,9.1,3.7,9.7c0,0.7,0.6,1.2,1.2,1.2c0.6,0,1.2-0.4,1.2-1.1C6.1,9.1,5.4,8.7,4.6,8.4 M4.9,5.1C4.3,5.1,3.8,5.4,3.8,6
		c0,0.6,0.7,1,1.3,1.2C5.5,7,5.9,6.6,5.9,6.1C5.9,5.5,5.5,5.1,4.9,5.1"/>
	<path class="st1" d="M12.9,10.1v1.9h-1.5v-1.9H8.1V8.9l3-4.8h1.8v4.8h1v1.2H12.9z M11.4,5.7c-0.1,0.2-0.2,0.4-0.3,0.6L9.5,8.9h1.9
		V7C11.4,6.3,11.4,6,11.4,5.7L11.4,5.7z"/>
</g>
</svg>
