<?xml version="1.0" encoding="UTF-8" standalone="no"?>
<!-- Generator: Adobe Illustrator 19.2.1, SVG Export Plug-In . SVG Version: 6.00 Build 0)  -->

<svg
   xmlns:dc="http://purl.org/dc/elements/1.1/"
   xmlns:cc="http://creativecommons.org/ns#"
   xmlns:rdf="http://www.w3.org/1999/02/22-rdf-syntax-ns#"
   xmlns:svg="http://www.w3.org/2000/svg"
   xmlns="http://www.w3.org/2000/svg"
   xmlns:xlink="http://www.w3.org/1999/xlink"
   xmlns:sodipodi="http://sodipodi.sourceforge.net/DTD/sodipodi-0.dtd"
   xmlns:inkscape="http://www.inkscape.org/namespaces/inkscape"
   version="1.1"
   id="Calque_1"
   x="0px"
   y="0px"
   viewBox="0 0 16 16"
   style="enable-background:new 0 0 16 16;"
   xml:space="preserve"
   inkscape:version="0.91 r13725"
   width="100%"
   height="100%"
   sodipodi:docname="STIB-MIVB_Line_8.svg"><metadata
     id="metadata23"><rdf:RDF><cc:Work
         rdf:about=""><dc:format>image/svg+xml</dc:format><dc:type
           rdf:resource="http://purl.org/dc/dcmitype/StillImage" /><dc:title /></cc:Work></rdf:RDF></metadata><defs
     id="defs21"><clipPath
       id="SVGID_2_-1"><use
         xlink:href="#SVGID_1_"
         style="overflow:visible;"
         id="use11-7" /></clipPath></defs><sodipodi:namedview
     pagecolor="#ffffff"
     bordercolor="#666666"
     borderopacity="1"
     objecttolerance="10"
     gridtolerance="10"
     guidetolerance="10"
     inkscape:pageopacity="0"
     inkscape:pageshadow="2"
     inkscape:window-width="1280"
     inkscape:window-height="755"
     id="namedview19"
     showgrid="false"
     inkscape:zoom="3.6948106"
     inkscape:cx="-0.015921087"
     inkscape:cy="13.728813"
     inkscape:window-x="0"
     inkscape:window-y="1"
     inkscape:window-maximized="1"
     inkscape:current-layer="text4145" /><style
     type="text/css"
     id="style3">
	.st0{clip-path:url(#SVGID_2_);fill:#449345;}
	.st1{clip-path:url(#SVGID_2_);fill:#FFFFFF;}
</style><g
     id="g5"><defs
       id="defs7"><rect
         id="SVGID_1_"
         width="16"
         height="16" /></defs><clipPath
       id="SVGID_2_"><use
         xlink:href="#SVGID_1_"
         style="overflow:visible;"
         id="use11" /></clipPath><path
       class="st0"
       d="M16,14c0,1.1-0.9,2-2,2H2c-1.1,0-2-0.9-2-2V2c0-1.1,0.9-2,2-2h12c1.1,0,2,0.9,2,2V14z"
       id="path13"
       clip-path="url(#SVGID_2_)"
       style="fill:#1c9ed9;fill-opacity:1" /><g
       transform="scale(0.99532057,1.0047014)"
       style="font-size:11.30728339999999900px;font-style:normal;font-variant:normal;font-weight:normal;font-stretch:normal;line-height:105.99999428000000000%;letter-spacing:0px;word-spacing:0px;fill:#161616;fill-opacity:1;stroke:none;font-family:Brusseline;-inkscape-font-specification:Brusseline"
       id="text3000"><g
         transform="scale(1.0047014,0.9953206)"
         style="font-style:normal;font-weight:normal;font-size:11.38945293px;line-height:125%;font-family:sans-serif;letter-spacing:0px;word-spacing:0px;fill:#ffffff;fill-opacity:1;stroke:none;stroke-width:1px;stroke-linecap:butt;stroke-linejoin:miter;stroke-opacity:1"
         id="text4145"><path
           d="m 5.0939747,9.8800744 q 0,-1.3439554 1.4692394,-2.061491 l 0,-0.011389 Q 5.9937415,7.5224577 5.6634473,7.0554901 5.3331532,6.5771331 5.3331532,6.0076604 q 0,-0.9111562 0.6947566,-1.4920183 0.6947566,-0.5922516 1.8564808,-0.5922516 1.0933875,0 1.8109231,0.5239149 0.7175353,0.5125253 0.7175353,1.3895132 0,0.5580832 -0.330294,1.0592191 Q 9.7522609,7.3857842 9.1486199,7.68191 l 0,0.011389 q 1.5261871,0.7289249 1.5261871,2.0842698 0,1.0364407 -0.7517043,1.6856387 -0.7517039,0.63781 -2.0501015,0.63781 -1.2414504,0 -2.0159332,-0.603641 Q 5.0939747,10.893736 5.0939747,9.8800744 Z M 6.6884981,9.7661799 q 0,0.5125251 0.3644625,0.8655981 0.3644625,0.353073 0.8883773,0.353073 0.5011359,0 0.8314301,-0.296125 0.3302941,-0.296126 0.3302941,-0.7858727 0,-0.5239148 -0.3986308,-0.8655984 Q 8.3171899,8.6841819 7.6452121,8.410835 6.6884981,8.9119709 6.6884981,9.7661799 Z M 6.836561,5.9734921 q 0,0.3075152 0.2163996,0.5694726 0.2163996,0.250568 0.4555781,0.3872414 0.2391785,0.1366734 0.5922515,0.2847363 0.3416836,-0.1480629 0.5808621,-0.4669675 0.2391786,-0.3302942 0.2391786,-0.6947567 0,-0.4441886 -0.2733469,-0.728925 -0.2733469,-0.2847363 -0.728925,-0.2847363 -0.4555781,0 -0.7744828,0.250568 Q 6.836561,5.5406928 6.836561,5.9734921 Z"
           style="font-style:normal;font-variant:normal;font-weight:bold;font-stretch:normal;font-family:Brusseline;-inkscape-font-specification:Brusseline;fill:#ffffff"
           id="path4172" /></g></g></g></svg>